<svg width="174" height="48" viewBox="0 0 174 48" fill="none" xmlns="http://www.w3.org/2000/svg">
<g id="Logo">
<g id="Logo_2">
<path d="M47.7403 47.6787H45.6358C36.5961 47.6787 28.1569 43.2472 23.0606 35.8243L17.834 28.2114V47.6787H16.7259C8.76452 47.6787 2.28753 41.239 2.28753 33.3234V12.627H3.39562C9.9351 12.627 14.7455 19.7939 14.9472 20.0988L24.8907 34.5815C29.1639 40.8054 35.9937 44.7407 43.4671 45.3823L34.1273 31.8532L35.2854 31.294C37.9635 30.0019 40.0427 28.2035 41.4659 25.9485C42.8918 23.6882 43.6147 20.9894 43.6147 17.9276C43.6147 14.7414 42.8395 11.9373 41.3112 9.59418C39.7816 7.2559 37.5668 5.42441 34.7283 4.15082C31.8357 2.85873 28.3603 2.20343 24.4005 2.20343H2.2831C2.8008 6.4208 6.25315 9.74975 10.5419 10.1045C10.5521 10.1054 10.5627 10.1063 10.5729 10.1071C10.8136 10.1261 11.0565 10.1358 11.3025 10.1358H23.6204C26.5422 10.1358 28.8093 10.8171 30.3593 12.1612C31.955 13.5441 32.7643 15.484 32.7643 17.9271C32.7643 20.3756 31.9523 22.3075 30.3514 23.6693C28.7947 24.9887 26.5311 25.6568 23.6204 25.6568H22.9883C22.2588 25.6568 21.5696 25.3047 21.1449 24.715L18.7821 21.4376C16.3004 17.9954 13.3586 14.9124 10.0339 12.2687C4.39644 11.6399 0 6.87206 0 1.10172V0H24.4009C28.6759 0 32.4567 0.720522 35.6387 2.14174C38.8712 3.59203 41.4047 5.69499 43.1701 8.39375C44.936 11.1013 45.8313 14.3082 45.8313 17.9271C45.8313 21.4094 44.994 24.5017 43.3439 27.119C41.906 29.3964 39.9066 31.2641 37.389 32.6831L47.7403 47.6787ZM4.50415 14.9208V33.3234C4.50415 39.6525 9.39612 44.8672 15.6182 45.4255V25.2456C15.6182 25.1676 15.6267 25.0909 15.6422 25.0178L13.1064 21.3248C13.0568 21.2503 9.31989 15.6999 4.50415 14.9208ZM13.5435 12.3401C16.1652 14.6815 18.5254 17.3005 20.5838 20.1548L22.9467 23.4326C22.9564 23.4463 22.9724 23.4542 22.9888 23.4542H23.6208C25.9895 23.4542 27.7695 22.9628 28.9122 21.9942C30.0127 21.0582 30.5481 19.7278 30.5481 17.9276C30.5481 16.1247 30.0101 14.7819 28.9029 13.8226C27.7682 12.8385 25.9913 12.3397 23.6204 12.3397L13.5435 12.3401Z" fill="url(#paint0_linear_207_75)"/>
<path d="M17.8366 28.2092V38.9884C17.2161 39.0016 16.436 39.0193 15.6205 39.0281V25.2478C15.6205 25.1685 15.6249 25.0936 15.6426 25.0186C15.6426 25.0186 17.4732 27.5394 17.8366 28.2092Z" fill="url(#paint1_linear_207_75)"/>
<path d="M21.0013 20.7308L18.8162 21.4887L18.7807 21.4403C16.303 17.9985 13.3644 14.9181 10.0401 12.274C10.0357 12.2696 10.0357 12.2696 10.0357 12.2696C10.0357 12.2696 10.9266 12.3401 11.751 12.3401C12.571 12.3401 13.5417 12.3401 13.5417 12.3401C16.1656 14.6801 18.5236 17.3022 20.5847 20.1535L21.0013 20.7308Z" fill="url(#paint2_linear_207_75)"/>
<path d="M49.8585 24.8693C49.8585 24.2743 50.0859 23.7627 50.5407 23.3343C51.0194 22.906 51.5938 22.6918 52.264 22.6918H68.2763C68.2763 24.1196 68.0249 25.1667 67.5223 25.833C67.0436 26.4756 66.2538 26.7968 65.1528 26.7968H54.6694V33.0079H64.2193C64.2193 34.4357 63.968 35.4827 63.4654 36.1491C62.9867 36.7916 62.1968 37.1128 61.0959 37.1128H54.6694V43.5737H65.9067C66.9838 43.5737 67.7617 43.9069 68.2403 44.5732C68.743 45.2157 68.9943 46.2509 68.9943 47.6787H52.264C51.5938 47.6787 51.0194 47.4765 50.5407 47.0719C50.0859 46.6436 49.8585 46.12 49.8585 45.5013V24.8693Z" fill="url(#paint3_linear_207_75)"/>
<path d="M81.1996 48C79.0694 48 77.1666 47.5955 75.4911 46.7864C73.8397 45.9773 72.5472 44.8469 71.6137 43.3953C70.6803 41.9436 70.2136 40.2898 70.2136 38.4336V31.8656C70.2136 30.0094 70.6683 28.3674 71.5778 26.9396C72.5113 25.488 73.7918 24.3695 75.4193 23.5842C77.0469 22.7751 78.9138 22.3706 81.0201 22.3706C83.1263 22.3706 84.9932 22.6918 86.6208 23.3343C88.2723 23.9531 89.5528 24.8336 90.4623 25.9758C91.3718 27.0943 91.8265 28.3793 91.8265 29.8309C91.8265 30.7114 91.5274 31.4134 90.929 31.937C90.3546 32.4367 89.5767 32.6866 88.5954 32.6866C88.1167 32.6866 87.5901 32.6152 87.0157 32.4724C87.0635 31.9013 87.0875 31.3421 87.0875 30.7947C87.0875 29.5335 86.525 28.5102 85.4001 27.7249C84.2752 26.9396 82.8152 26.5469 81.0201 26.5469C79.2489 26.5469 77.8008 27.0467 76.6759 28.0462C75.5749 29.0218 75.0244 30.295 75.0244 31.8656V38.4336C75.0244 40.028 75.5988 41.3249 76.7477 42.3244C77.8966 43.3239 79.3805 43.8236 81.1996 43.8236C82.9947 43.8236 84.4547 43.431 85.5796 42.6457C86.7045 41.8604 87.267 40.849 87.267 39.6115C87.267 39.0404 87.2431 38.4931 87.1952 37.9695C87.7936 37.8506 88.2962 37.7911 88.7031 37.7911C89.7083 37.7911 90.5101 38.0528 91.1085 38.5764C91.7069 39.0999 92.0061 39.8138 92.0061 40.7181C92.0061 42.1221 91.5513 43.3834 90.6418 44.5018C89.7323 45.5965 88.4518 46.4532 86.8003 47.0719C85.1727 47.6906 83.3058 48 81.1996 48Z" fill="url(#paint4_linear_207_75)"/>
<path d="M105.381 48C103.419 48 101.623 47.6192 99.9959 46.8577C98.3684 46.0724 97.0759 45.0135 96.1185 43.6808C95.1851 42.3482 94.7183 40.8966 94.7183 39.326V31.0089C94.7183 29.4383 95.1851 27.9986 96.1185 26.6897C97.0759 25.3571 98.3684 24.31 99.9959 23.5485C101.623 22.7632 103.419 22.3706 105.381 22.3706C107.344 22.3706 109.139 22.7632 110.767 23.5485C112.418 24.31 113.71 25.3571 114.644 26.6897C115.601 27.9986 116.08 29.4383 116.08 31.0089V39.326C116.08 40.8966 115.601 42.3482 114.644 43.6808C113.71 45.0135 112.418 46.0724 110.767 46.8577C109.139 47.6192 107.344 48 105.381 48ZM105.381 43.8236C107.176 43.8236 108.612 43.4072 109.689 42.5743C110.767 41.7176 111.305 40.611 111.305 39.2546V31.116C111.305 29.7358 110.767 28.6292 109.689 27.7963C108.612 26.9396 107.176 26.5113 105.381 26.5113C103.61 26.5113 102.186 26.9396 101.109 27.7963C100.032 28.6292 99.4933 29.7358 99.4933 31.116V39.2546C99.4933 40.611 100.032 41.7176 101.109 42.5743C102.186 43.4072 103.61 43.8236 105.381 43.8236Z" fill="url(#paint5_linear_207_75)"/>
<path d="M128.015 48C126.866 48 126.088 47.4765 125.681 46.4294L116.526 22.8346C116.765 22.7156 117.088 22.6085 117.495 22.5133C117.902 22.4182 118.261 22.3706 118.572 22.3706C120.463 22.3706 121.684 23.1321 122.234 24.6551L127.763 40.0399L126.902 42.3244L127.297 42.4672L133.759 24.6551C134.333 23.1321 135.554 22.3706 137.421 22.3706C137.732 22.3706 138.091 22.4182 138.498 22.5133C138.905 22.6085 139.24 22.7156 139.503 22.8346L130.348 46.4294C130.157 46.9291 129.858 47.3218 129.451 47.6073C129.068 47.8691 128.589 48 128.015 48Z" fill="url(#paint6_linear_207_75)"/>
<path d="M143.662 25.9401C143.662 24.8217 144.081 23.9531 144.919 23.3343C145.757 22.6918 146.941 22.3706 148.473 22.3706V44.4304C148.473 45.5727 148.054 46.4532 147.217 47.0719C146.379 47.6906 145.194 48 143.662 48V25.9401Z" fill="url(#paint7_linear_207_75)"/>
<path d="M163.301 48C161.339 48 159.543 47.6192 157.916 46.8577C156.288 46.0724 154.996 45.0135 154.038 43.6808C153.105 42.3482 152.638 40.8966 152.638 39.326V31.0089C152.638 29.4383 153.105 27.9986 154.038 26.6897C154.996 25.3571 156.288 24.31 157.916 23.5485C159.543 22.7632 161.339 22.3706 163.301 22.3706C165.264 22.3706 167.059 22.7632 168.687 23.5485C170.338 24.31 171.63 25.3571 172.564 26.6897C173.521 27.9986 174 29.4383 174 31.0089V39.326C174 40.8966 173.521 42.3482 172.564 43.6808C171.63 45.0135 170.338 46.0724 168.687 46.8577C167.059 47.6192 165.264 48 163.301 48ZM163.301 43.8236C165.096 43.8236 166.532 43.4072 167.609 42.5743C168.687 41.7176 169.225 40.611 169.225 39.2546V31.116C169.225 29.7358 168.687 28.6292 167.609 27.7963C166.532 26.9396 165.096 26.5113 163.301 26.5113C161.53 26.5113 160.106 26.9396 159.029 27.7963C157.952 28.6292 157.413 29.7358 157.413 31.116V39.2546C157.413 40.611 157.952 41.7176 159.029 42.5743C160.106 43.4072 161.53 43.8236 163.301 43.8236Z" fill="url(#paint8_linear_207_75)"/>
</g>
</g>
<defs>
<linearGradient id="paint0_linear_207_75" x1="13.2142" y1="-2.66686" x2="29.3404" y2="77.2065" gradientUnits="userSpaceOnUse">
<stop stop-color="#54DF0A"/>
<stop offset="1" stop-color="#194341"/>
</linearGradient>
<linearGradient id="paint1_linear_207_75" x1="86.9861" y1="44.1953" x2="86.9861" y2="10.5739" gradientUnits="userSpaceOnUse">
<stop stop-color="#FFCB30" stop-opacity="0"/>
<stop offset="1" stop-color="#009DEA"/>
</linearGradient>
<linearGradient id="paint2_linear_207_75" x1="86.9972" y1="38.8915" x2="86.9972" y2="0.824627" gradientUnits="userSpaceOnUse">
<stop stop-color="#FFCB30" stop-opacity="0"/>
<stop offset="1" stop-color="#009DEA"/>
</linearGradient>
<linearGradient id="paint3_linear_207_75" x1="13.2142" y1="-2.66686" x2="29.3404" y2="77.2065" gradientUnits="userSpaceOnUse">
<stop stop-color="#54DF0A"/>
<stop offset="1" stop-color="#194341"/>
</linearGradient>
<linearGradient id="paint4_linear_207_75" x1="13.2142" y1="-2.66686" x2="29.3404" y2="77.2065" gradientUnits="userSpaceOnUse">
<stop stop-color="#54DF0A"/>
<stop offset="1" stop-color="#194341"/>
</linearGradient>
<linearGradient id="paint5_linear_207_75" x1="13.2142" y1="-2.66686" x2="29.3404" y2="77.2065" gradientUnits="userSpaceOnUse">
<stop stop-color="#54DF0A"/>
<stop offset="1" stop-color="#194341"/>
</linearGradient>
<linearGradient id="paint6_linear_207_75" x1="13.2142" y1="-2.66686" x2="29.3404" y2="77.2065" gradientUnits="userSpaceOnUse">
<stop stop-color="#54DF0A"/>
<stop offset="1" stop-color="#194341"/>
</linearGradient>
<linearGradient id="paint7_linear_207_75" x1="13.2142" y1="-2.66686" x2="29.3404" y2="77.2065" gradientUnits="userSpaceOnUse">
<stop stop-color="#54DF0A"/>
<stop offset="1" stop-color="#194341"/>
</linearGradient>
<linearGradient id="paint8_linear_207_75" x1="13.2142" y1="-2.66686" x2="29.3404" y2="77.2065" gradientUnits="userSpaceOnUse">
<stop stop-color="#54DF0A"/>
<stop offset="1" stop-color="#194341"/>
</linearGradient>
</defs>
</svg>
