<svg width="137" height="116" viewBox="0 0 137 116" fill="none" xmlns="http://www.w3.org/2000/svg">
<g id="SVG" clip-path="url(#clip0_207_728)">
<path id="Vector" d="M62.8173 16.1418V73.6418C62.8173 79.3047 61.7146 84.7089 59.5094 89.8545C57.3041 95.0001 54.323 99.4515 50.5658 103.209C46.8087 106.966 42.3574 109.947 37.2118 112.152C32.0662 114.357 26.662 115.46 20.9991 115.46H15.7718C14.3561 115.46 13.131 114.943 12.0964 113.908C11.0618 112.874 10.5445 111.648 10.5445 110.233V99.7782C10.5445 98.3625 11.0618 97.1373 12.0964 96.1028C13.131 95.0682 14.3561 94.5509 15.7718 94.5509H20.9991C26.7709 94.5509 31.6987 92.509 35.7825 88.4252C39.8663 84.3414 41.9082 79.4136 41.9082 73.6418V71.0282C41.9082 68.8502 41.1459 66.9988 39.6212 65.4742C38.0966 63.9496 36.2453 63.1873 34.0673 63.1873H15.7718C11.4158 63.1873 7.71308 61.6626 4.66383 58.6134C1.61459 55.5642 0.0899658 51.8615 0.0899658 47.5055V16.1418C0.0899658 11.7858 1.61459 8.08307 4.66383 5.03382C7.71308 1.98458 11.4158 0.459961 15.7718 0.459961H47.1355C51.4915 0.459961 55.1942 1.98458 58.2434 5.03382C61.2926 8.08307 62.8173 11.7858 62.8173 16.1418ZM135.999 16.1418V73.6418C135.999 79.3047 134.896 84.7089 132.691 89.8545C130.486 95.0001 127.505 99.4515 123.748 103.209C119.991 106.966 115.539 109.947 110.394 112.152C105.248 114.357 99.8438 115.46 94.1809 115.46H88.9536C87.5379 115.46 86.3128 114.943 85.2782 113.908C84.2436 112.874 83.7264 111.648 83.7264 110.233V99.7782C83.7264 98.3625 84.2436 97.1373 85.2782 96.1028C86.3128 95.0682 87.5379 94.5509 88.9536 94.5509H94.1809C99.9527 94.5509 104.88 92.509 108.964 88.4252C113.048 84.3414 115.09 79.4136 115.09 73.6418V71.0282C115.09 68.8502 114.328 66.9988 112.803 65.4742C111.278 63.9496 109.427 63.1873 107.249 63.1873H88.9536C84.5976 63.1873 80.8949 61.6626 77.8457 58.6134C74.7964 55.5642 73.2718 51.8615 73.2718 47.5055V16.1418C73.2718 11.7858 74.7964 8.08307 77.8457 5.03382C80.8949 1.98458 84.5976 0.459961 88.9536 0.459961H120.317C124.673 0.459961 128.376 1.98458 131.425 5.03382C134.474 8.08307 135.999 11.7858 135.999 16.1418Z" fill="white" fill-opacity="0.07"/>
</g>
<defs>
<clipPath id="clip0_207_728">
<rect width="136" height="115" fill="white" transform="translate(0.0899658 0.459961)"/>
</clipPath>
</defs>
</svg>
